<svg width="90" height="45" viewBox="0 0 90 45" fill="none" xmlns="http://www.w3.org/2000/svg">
<path d="M12.5745 43.8021V45H9.5952V43.8021C9.5952 43.3077 9.50032 42.845 9.31056 42.4141C9.12079 41.9831 8.86145 41.6091 8.53252 41.2922C8.21625 40.9626 7.83672 40.7028 7.39394 40.5126C6.9638 40.3225 6.50204 40.2274 6.00865 40.2274H3.02935V45H0.0500488V31.8611H3.02935V37.2421H6.00865C6.50204 37.2421 6.9638 37.1471 7.39394 36.9569C7.83672 36.7668 8.21625 36.5133 8.53252 36.1964C8.86145 35.8668 9.12079 35.4865 9.31056 35.0555C9.50032 34.6118 9.5952 34.1428 9.5952 33.6484V31.8611H12.5745V33.6484C12.5745 34.2062 12.5302 34.7196 12.4417 35.1886C12.3531 35.6576 12.214 36.095 12.0242 36.5006C11.8344 36.9062 11.5877 37.2929 11.2841 37.6605C10.9805 38.0281 10.6136 38.383 10.1835 38.7253C10.6136 39.0802 10.9805 39.4415 11.2841 39.8091C11.5877 40.1767 11.8344 40.5633 12.0242 40.969C12.214 41.3746 12.3531 41.8119 12.4417 42.281C12.5302 42.75 12.5745 43.257 12.5745 43.8021Z" fill="#FFE3FF"/>
<path d="M22.485 42.6232H17.8547V45H14.8754V31.8611H22.6368C23.5223 31.8611 24.313 32.0386 25.0088 32.3935C25.7046 32.7484 26.2866 33.2111 26.7547 33.7815C27.2227 34.352 27.5643 34.9985 27.7794 35.721C27.9945 36.4309 28.0577 37.1534 27.9692 37.8886C27.8932 38.6239 27.6592 39.3337 27.267 40.0182C26.8748 40.6901 26.3056 41.2669 25.5591 41.7486L27.9881 45H24.2687L22.485 42.6232ZM25.0088 37.2421C25.0088 36.3928 24.8254 35.7844 24.4585 35.4168C24.0916 35.0365 23.4844 34.8463 22.6368 34.8463H17.8547V39.638H22.6368C23.4844 39.638 24.0916 39.4542 24.4585 39.0865C24.8254 38.7063 25.0088 38.0915 25.0088 37.2421Z" fill="#FFE3FF"/>
<path d="M37.0773 31.8611C37.8237 31.8611 38.5195 32.0005 39.1647 32.2794C39.8225 32.5583 40.3918 32.9449 40.8725 33.4393C41.3659 33.921 41.7518 34.4914 42.0301 35.1506C42.3084 35.7971 42.4476 36.4879 42.4476 37.2231C42.4476 37.971 42.3084 38.6746 42.0301 39.3337C41.7518 39.9802 41.3659 40.5506 40.8725 41.045C40.3918 41.5267 39.8225 41.907 39.1647 42.1859C38.5195 42.4648 37.8237 42.6042 37.0773 42.6042H32.9024V45H29.9231V31.8611H37.0773ZM39.4683 37.2231C39.4683 36.3865 39.2785 35.7844 38.899 35.4168C38.5321 35.0365 37.9249 34.8463 37.0773 34.8463H32.9024V39.6189H37.0773C37.9249 39.6189 38.5321 39.4351 38.899 39.0675C39.2785 38.6872 39.4683 38.0724 39.4683 37.2231Z" fill="#FFE3FF"/>
<path d="M54.1654 31.8611V34.8463H49.9906V45H46.9923V34.8463H42.8175V31.8611H54.1654Z" fill="#FFE3FF"/>
<path d="M63.44 42.6232H58.8097V45H55.8304V31.8611H63.5918C64.4774 31.8611 65.2681 32.0386 65.9639 32.3935C66.6597 32.7484 67.2416 33.2111 67.7097 33.7815C68.1778 34.352 68.5194 34.9985 68.7344 35.721C68.9495 36.4309 69.0127 37.1534 68.9242 37.8886C68.8483 38.6239 68.6142 39.3337 68.2221 40.0182C67.8299 40.6901 67.2606 41.2669 66.5142 41.7486L68.9432 45H65.2238L63.44 42.6232ZM65.9639 37.2421C65.9639 36.3928 65.7804 35.7844 65.4136 35.4168C65.0467 35.0365 64.4394 34.8463 63.5918 34.8463H58.8097V39.638H63.5918C64.4394 39.638 65.0467 39.4542 65.4136 39.0865C65.7804 38.7063 65.9639 38.0915 65.9639 37.2421Z" fill="#FFE3FF"/>
<path d="M73.8575 31.8611V45H70.8782V31.8611H73.8575Z" fill="#FFE3FF"/>
<path d="M78.9166 33.6484C78.9166 34.1428 79.0115 34.6118 79.2013 35.0555C79.391 35.4865 79.6441 35.8668 79.9603 36.1964C80.2893 36.5133 80.6688 36.7668 81.0989 36.9569C81.5417 37.1344 82.0098 37.2231 82.5032 37.2231C82.9966 37.2231 83.4583 37.1344 83.8885 36.9569C84.3186 36.7668 84.6918 36.5133 85.0081 36.1964C85.337 35.8668 85.5963 35.4865 85.7861 35.0555C85.9759 34.6118 86.0707 34.1428 86.0707 33.6484V31.8611H89.05V33.6484C89.05 34.2062 89.0058 34.7196 88.9172 35.1886C88.8287 35.6449 88.6895 36.0823 88.4997 36.5006C88.31 36.9062 88.0633 37.2929 87.7597 37.6605C87.456 38.0154 87.0891 38.3703 86.659 38.7253C87.0891 39.0802 87.456 39.4415 87.7597 39.8091C88.0633 40.1767 88.31 40.5633 88.4997 40.969C88.6895 41.3746 88.8287 41.8119 88.9172 42.281C89.0058 42.75 89.05 43.257 89.05 43.8021V45H86.0707V43.8021C86.0707 43.3077 85.9759 42.845 85.7861 42.4141C85.5963 41.9704 85.337 41.5901 85.0081 41.2732C84.6918 40.9436 84.3186 40.6837 83.8885 40.4936C83.4583 40.3035 82.9966 40.2084 82.5032 40.2084C82.0098 40.2084 81.5417 40.3035 81.0989 40.4936C80.6688 40.6837 80.2893 40.9436 79.9603 41.2732C79.6441 41.5901 79.391 41.9704 79.2013 42.4141C79.0115 42.845 78.9166 43.3077 78.9166 43.8021V45H75.9373V43.8021C75.9373 43.257 75.9816 42.75 76.0702 42.281C76.1587 41.8119 76.2979 41.3746 76.4876 40.969C76.6774 40.5633 76.9241 40.1767 77.2277 39.8091C77.5313 39.4415 77.8982 39.0802 78.3284 38.7253C77.4681 38.0281 76.8545 37.2865 76.4876 36.5006C76.1208 35.702 75.9373 34.7513 75.9373 33.6484V31.8611H78.9166V33.6484Z" fill="#FFE3FF"/>
<path d="M52.4415 21.4091C51.0397 21.4091 49.8526 20.922 48.8804 19.9478C47.9082 18.9737 47.4221 17.7843 47.4221 16.3797C47.4221 14.975 47.9082 13.7856 48.8804 12.8115C49.8526 11.8373 51.0397 11.3502 52.4415 11.3502C53.8433 11.3502 55.0303 11.8373 56.0025 12.8115C56.9748 13.7856 57.4609 14.975 57.4609 16.3797C57.4609 17.7843 56.9748 18.9737 56.0025 19.9478C55.0303 20.922 53.8433 21.4091 52.4415 21.4091ZM58.1731 10.0589C56.7713 10.0589 55.5843 9.57179 54.612 8.59762C53.6398 7.62345 53.1537 6.43406 53.1537 5.02944C53.1537 3.62482 53.6398 2.43543 54.612 1.46126C55.5843 0.487085 56.7713 0 58.1731 0C59.5749 0 60.762 0.487085 61.7342 1.46126C62.7064 2.43543 63.1925 3.62482 63.1925 5.02944C63.1925 6.43406 62.7064 7.62345 61.7342 8.59762C60.762 9.57179 59.5749 10.0589 58.1731 10.0589ZM66.8214 25.8268C65.4196 25.8268 64.2326 25.3398 63.2604 24.3656C62.2881 23.3914 61.802 22.202 61.802 20.7974C61.802 19.3928 62.2881 18.2034 63.2604 17.2292C64.2326 16.2551 65.4196 15.768 66.8214 15.768C68.2232 15.768 69.4103 16.2551 70.3825 17.2292C71.3547 18.2034 71.8409 19.3928 71.8409 20.7974C71.8409 22.202 71.3547 23.3914 70.3825 24.3656C69.4103 25.3398 68.2232 25.8268 66.8214 25.8268Z" fill="#FFE3FF"/>
</svg>
