<svg width="154" height="78" viewBox="0 0 154 78" fill="none" xmlns="http://www.w3.org/2000/svg">
<path d="M21.6505 75.568V77.6346H16.5003V75.568C16.5003 74.7151 16.3363 73.9169 16.0083 73.1733C15.6802 72.4298 15.2319 71.7846 14.6633 71.2379C14.1166 70.6693 13.4605 70.221 12.6951 69.8929C11.9515 69.5649 11.1533 69.4009 10.3004 69.4009H5.1502V77.6346H0V54.9672H5.1502V64.2507H10.3004C11.1533 64.2507 11.9515 64.0867 12.6951 63.7586C13.4605 63.4306 14.1166 62.9932 14.6633 62.4465C15.2319 61.8779 15.6802 61.2218 16.0083 60.4783C16.3363 59.7128 16.5003 58.9037 16.5003 58.0508V54.9672H21.6505V58.0508C21.6505 59.013 21.574 59.8987 21.4209 60.7079C21.2678 61.517 21.0272 62.2715 20.6992 62.9713C20.3712 63.6712 19.9447 64.3382 19.4198 64.9724C18.895 65.6066 18.2608 66.2189 17.5172 66.8094C18.2608 67.4217 18.895 68.045 19.4198 68.6792C19.9447 69.3134 20.3712 69.9804 20.6992 70.6802C21.0272 71.3801 21.2678 72.1345 21.4209 72.9437C21.574 73.7529 21.6505 74.6276 21.6505 75.568Z" fill="#413941"/>
<path d="M38.7823 73.5342H30.7782V77.6346H25.628V54.9672H39.0447C40.5756 54.9672 41.9424 55.2734 43.1452 55.8857C44.348 56.4981 45.354 57.2963 46.1631 58.2804C46.9723 59.2645 47.5628 60.3798 47.9345 61.6264C48.3063 62.8511 48.4157 64.0976 48.2626 65.366C48.1314 66.6344 47.7268 67.8591 47.0488 69.04C46.3709 70.1991 45.3868 71.1942 44.0965 72.0252L48.2954 77.6346H41.8658L38.7823 73.5342ZM43.1452 64.2507C43.1452 62.7855 42.8281 61.7357 42.1939 61.1015C41.5597 60.4455 40.51 60.1174 39.0447 60.1174H30.7782V68.384H39.0447C40.51 68.384 41.5597 68.0669 42.1939 67.4327C42.8281 66.7766 43.1452 65.7159 43.1452 64.2507Z" fill="#413941"/>
<path d="M64.0074 54.9672C65.2977 54.9672 66.5005 55.2078 67.6158 55.6889C68.753 56.17 69.7371 56.837 70.5681 57.6899C71.421 58.521 72.0881 59.5051 72.5692 60.6423C73.0503 61.7576 73.2909 62.9495 73.2909 64.2179C73.2909 65.5082 73.0503 66.7219 72.5692 67.8591C72.0881 68.9744 71.421 69.9586 70.5681 70.8115C69.7371 71.6425 68.753 72.2986 67.6158 72.7797C66.5005 73.2608 65.2977 73.5014 64.0074 73.5014H56.7905V77.6346H51.6404V54.9672H64.0074ZM68.1407 64.2179C68.1407 62.7745 67.8126 61.7357 67.1565 61.1015C66.5223 60.4455 65.4726 60.1174 64.0074 60.1174H56.7905V68.3512H64.0074C65.4726 68.3512 66.5223 68.0341 67.1565 67.3999C67.8126 66.7438 68.1407 65.6831 68.1407 64.2179Z" fill="#413941"/>
<path d="M93.5469 54.9672V60.1174H86.3301V77.6346H81.1471V60.1174H73.9303V54.9672H93.5469Z" fill="#413941"/>
<path d="M109.58 73.5342H101.575V77.6346H96.4252V54.9672H109.842C111.373 54.9672 112.74 55.2734 113.942 55.8857C115.145 56.4981 116.151 57.2963 116.96 58.2804C117.77 59.2645 118.36 60.3798 118.732 61.6264C119.104 62.8511 119.213 64.0976 119.06 65.366C118.929 66.6344 118.524 67.8591 117.846 69.04C117.168 70.1991 116.184 71.1942 114.894 72.0252L119.093 77.6346H112.663L109.58 73.5342ZM113.942 64.2507C113.942 62.7855 113.625 61.7357 112.991 61.1015C112.357 60.4455 111.307 60.1174 109.842 60.1174H101.575V68.384H109.842C111.307 68.384 112.357 68.0669 112.991 67.4327C113.625 66.7766 113.942 65.7159 113.942 64.2507Z" fill="#413941"/>
<path d="M127.588 54.9672V77.6346H122.438V54.9672H127.588Z" fill="#413941"/>
<path d="M136.333 58.0508C136.333 58.9037 136.497 59.7128 136.825 60.4783C137.153 61.2218 137.591 61.8779 138.138 62.4465C138.706 62.9932 139.362 63.4306 140.106 63.7586C140.871 64.0648 141.68 64.2179 142.533 64.2179C143.386 64.2179 144.184 64.0648 144.928 63.7586C145.671 63.4306 146.317 62.9932 146.863 62.4465C147.432 61.8779 147.88 61.2218 148.208 60.4783C148.536 59.7128 148.7 58.9037 148.7 58.0508V54.9672H153.851V58.0508C153.851 59.013 153.774 59.8987 153.621 60.7079C153.468 61.4952 153.227 62.2497 152.899 62.9713C152.571 63.6712 152.145 64.3382 151.62 64.9724C151.095 65.5847 150.461 66.1971 149.717 66.8094C150.461 67.4217 151.095 68.045 151.62 68.6792C152.145 69.3134 152.571 69.9804 152.899 70.6802C153.227 71.3801 153.468 72.1345 153.621 72.9437C153.774 73.7529 153.851 74.6276 153.851 75.568V77.6346H148.7V75.568C148.7 74.7151 148.536 73.9169 148.208 73.1733C147.88 72.4079 147.432 71.7518 146.863 71.2051C146.317 70.6365 145.671 70.1882 144.928 69.8601C144.184 69.5321 143.386 69.3681 142.533 69.3681C141.68 69.3681 140.871 69.5321 140.106 69.8601C139.362 70.1882 138.706 70.6365 138.138 71.2051C137.591 71.7518 137.153 72.4079 136.825 73.1733C136.497 73.9169 136.333 74.7151 136.333 75.568V77.6346H131.183V75.568C131.183 74.6276 131.26 73.7529 131.413 72.9437C131.566 72.1345 131.806 71.3801 132.134 70.6802C132.462 69.9804 132.889 69.3134 133.414 68.6792C133.939 68.045 134.573 67.4217 135.316 66.8094C133.829 65.6066 132.769 64.3272 132.134 62.9713C131.5 61.5936 131.183 59.9534 131.183 58.0508V54.9672H136.333V58.0508Z" fill="#413941"/>
<path d="M90.5669 36.9353C88.1436 36.9353 86.0916 36.095 84.411 34.4143C82.7303 32.7336 81.89 30.6817 81.89 28.2584C81.89 25.8352 82.7303 23.7832 84.411 22.1025C86.0916 20.4219 88.1436 19.5816 90.5669 19.5816C92.9901 19.5816 95.0421 20.4219 96.7227 22.1025C98.4034 23.7832 99.2437 25.8352 99.2437 28.2584C99.2437 30.6817 98.4034 32.7336 96.7227 34.4143C95.0421 36.095 92.9901 36.9353 90.5669 36.9353ZM100.475 17.3537C98.0516 17.3537 95.9997 16.5134 94.319 14.8327C92.6384 13.1521 91.798 11.1001 91.798 8.67686C91.798 6.25359 92.6384 4.20163 94.319 2.52098C95.9997 0.840327 98.0516 0 100.475 0C102.898 0 104.95 0.840327 106.631 2.52098C108.311 4.20163 109.152 6.25359 109.152 8.67686C109.152 11.1001 108.311 13.1521 106.631 14.8327C104.95 16.5134 102.898 17.3537 100.475 17.3537ZM115.425 44.5569C113.002 44.5569 110.95 43.7165 109.269 42.0359C107.588 40.3552 106.748 38.3033 106.748 35.88C106.748 33.4567 107.588 31.4048 109.269 29.7241C110.95 28.0435 113.002 27.2031 115.425 27.2031C117.848 27.2031 119.9 28.0435 121.581 29.7241C123.261 31.4048 124.102 33.4567 124.102 35.88C124.102 38.3033 123.261 40.3552 121.581 42.0359C119.9 43.7165 117.848 44.5569 115.425 44.5569Z" fill="#A653A8"/>
</svg>
