<svg width="16" height="18" viewBox="0 0 16 18" fill="none" xmlns="http://www.w3.org/2000/svg">
<path d="M3.28889 14.2105C2.37037 14.2105 1.59259 13.8872 0.955556 13.2406C0.318519 12.594 0 11.8045 0 10.8722C0 9.93985 0.318519 9.15038 0.955556 8.50376C1.59259 7.85714 2.37037 7.53383 3.28889 7.53383C4.20741 7.53383 4.98519 7.85714 5.62222 8.50376C6.25926 9.15038 6.57778 9.93985 6.57778 10.8722C6.57778 11.8045 6.25926 12.594 5.62222 13.2406C4.98519 13.8872 4.20741 14.2105 3.28889 14.2105ZM7.04444 6.67669C6.12593 6.67669 5.34815 6.35338 4.71111 5.70677C4.07407 5.06015 3.75556 4.27068 3.75556 3.33835C3.75556 2.40601 4.07407 1.61654 4.71111 0.969925C5.34815 0.323308 6.12593 0 7.04444 0C7.96296 0 8.74074 0.323308 9.37778 0.969925C10.0148 1.61654 10.3333 2.40601 10.3333 3.33835C10.3333 4.27068 10.0148 5.06015 9.37778 5.70677C8.74074 6.35338 7.96296 6.67669 7.04444 6.67669ZM12.7111 17.1429C11.7926 17.1429 11.0148 16.8195 10.3778 16.1729C9.74074 15.5263 9.42222 14.7368 9.42222 13.8045C9.42222 12.8722 9.74074 12.0827 10.3778 11.4361C11.0148 10.7895 11.7926 10.4662 12.7111 10.4662C13.6296 10.4662 14.4074 10.7895 15.0444 11.4361C15.6815 12.0827 16 12.8722 16 13.8045C16 14.7368 15.6815 15.5263 15.0444 16.1729C14.4074 16.8195 13.6296 17.1429 12.7111 17.1429Z" fill="#A653A8"/>
</svg>
